<svg width="797" height="372" viewBox="0 0 797 372" fill="none" xmlns="http://www.w3.org/2000/svg">
<path d="M0 324.5H52V54.5H0V14.5H118.5L235.5 310.5L352.5 14.5H470V54.5H418V324.5H470V364.5H325.5V324.5H377V193.25V62H375.5L255.5 364.5H214L94 62H92.5V324.5H148V364.5H0V324.5Z" fill="white"/>
<path d="M506.035 230H546.535V249C546.535 263.667 552.035 277.5 563.035 290.5C574.035 303.167 588.868 313.5 607.535 321.5C626.202 329.5 646.368 333.5 668.035 333.5C685.035 333.5 699.868 331.333 712.535 327C725.535 322.333 735.535 315.833 742.535 307.5C749.868 298.833 753.535 288.833 753.535 277.5C753.535 265.5 749.035 255.5 740.035 247.5C731.368 239.5 720.035 233 706.035 228C692.368 222.667 672.702 216.5 647.035 209.5C646.035 209.5 644.868 209.333 643.535 209C642.535 208.333 641.535 207.833 640.535 207.5C640.202 207.5 639.868 207.5 639.535 207.5C639.202 207.167 638.868 207 638.535 207C613.868 200.333 593.035 193.5 576.035 186.5C559.035 179.167 544.368 168.5 532.035 154.5C520.035 140.5 514.035 122.667 514.035 101C514.035 81.3333 519.202 64.5 529.535 50.5C539.868 36.1667 554.035 25.3333 572.035 18C590.368 10.6667 611.035 7 634.035 7C648.702 7 662.702 8.66666 676.035 12C689.702 15.3333 702.368 20.1667 714.035 26.5C720.368 30.1667 726.368 34.3333 732.035 39C737.702 43.6667 743.035 48.6667 748.035 54V0H788.035V138H748.535V121.5C748.535 109.5 743.202 97.5 732.535 85.5C722.202 73.5 708.202 63.6667 690.535 56C672.868 48 654.035 44 634.035 44C610.035 44 590.868 49 576.535 59C562.535 69 555.535 82.6667 555.535 100C555.535 113.333 559.868 124.333 568.535 133C577.202 141.333 588.202 148.167 601.535 153.5C615.202 158.833 634.202 164.833 658.535 171.5C659.868 171.833 661.202 172.167 662.535 172.5C664.202 172.833 665.702 173.167 667.035 173.5L672.535 175C698.868 182 720.368 189 737.035 196C753.702 203 767.702 213 779.035 226C790.702 238.667 796.535 255.333 796.535 276C796.535 295.667 791.035 312.833 780.035 327.5C769.035 341.833 754.035 352.833 735.035 360.5C716.035 368.167 694.535 372 670.535 372C653.535 372 637.368 370 622.035 366C607.035 362.333 593.535 357.167 581.535 350.5C574.535 346.167 568.035 341.5 562.035 336.5C556.035 331.5 550.702 326 546.035 320V371H506.035V230Z" fill="white"/>
</svg>
